<?xml version="1.0" encoding="utf-8"?>
<svg viewBox="300 200 200 200" xmlns="http://www.w3.org/2000/svg">
  <g fill-rule="nonzero" transform="matrix(1.40624, 0, 0, 1.40624, -72.647705, -193.259155)">
    <path d="M 377.475 360.612 C 371.691 383.548 348.193 397.507 324.99 391.787 C 301.798 386.069 287.678 362.837 293.466 339.901 C 299.247 316.962 322.744 303.003 345.94 308.721 C 369.142 314.44 383.259 337.675 377.475 360.612 Z" fill="#f7931a" style=""/>
    <path d="M 354.563 344.156 C 355.425 338.459 351.038 335.396 345.039 333.353 L 346.985 325.636 L 342.233 324.464 L 340.338 331.979 C 339.089 331.671 337.807 331.381 336.532 331.093 L 338.44 323.53 L 333.692 322.358 L 331.744 330.073 C 330.71 329.84 329.695 329.61 328.71 329.369 L 328.716 329.344 L 322.162 327.727 L 320.898 332.744 C 320.898 332.744 324.423 333.542 324.349 333.592 C 326.274 334.067 326.622 335.326 326.563 336.324 L 324.347 345.116 C 324.48 345.149 324.651 345.198 324.84 345.272 C 324.682 345.233 324.513 345.191 324.338 345.149 L 321.231 357.466 C 320.996 358.043 320.399 358.91 319.054 358.581 C 319.101 358.649 315.6 357.729 315.6 357.729 L 313.242 363.106 L 319.425 364.63 C 320.575 364.915 321.702 365.213 322.812 365.494 L 320.845 373.299 L 325.592 374.471 L 327.539 366.748 C 328.836 367.096 330.094 367.417 331.325 367.719 L 329.385 375.405 L 334.136 376.577 L 336.103 368.786 C 344.205 370.302 350.298 369.69 352.862 362.445 C 354.929 356.612 352.759 353.247 348.497 351.052 C 351.601 350.345 353.94 348.326 354.563 344.156 Z M 343.707 359.205 C 342.238 365.04 332.305 361.886 329.084 361.095 L 331.692 350.754 C 334.913 351.549 345.242 353.122 343.707 359.205 Z M 345.177 344.07 C 343.837 349.377 335.569 346.682 332.886 346.02 L 335.252 336.642 C 337.934 337.303 346.573 338.536 345.177 344.07 Z" fill="#fff" style=""/>
  </g>
</svg>