<?xml version="1.0" encoding="utf-8"?>
<svg viewBox="100 200 200 200" xmlns="http://www.w3.org/2000/svg">
  <g id="g10" transform="matrix(0.540843, 0, 0, -0.507168, 139.91983, 382.197815)" style="">
    <g id="g12" transform="scale(0.1)">
      <path d="m 1104.58,2696.98 c 392.23,0 712.13,-464.34 712.13,-1033.67 0,-569.3 -319.9,-1033.638 -712.13,-1033.638 -392.26,0 -712.162,464.338 -712.162,1033.638 0,569.33 319.902,1033.67 712.162,1033.67" style="fill:none;stroke:#2f2f81;stroke-width:40.836;stroke-linecap:butt;stroke-linejoin:miter;stroke-miterlimit:22.9256;stroke-dasharray:none;stroke-opacity:1" id="path14"/>
      <path d="M 589.875,948.262 H 1611" style="fill:none;stroke:#2f2f81;stroke-width:40.83;stroke-linecap:butt;stroke-linejoin:miter;stroke-miterlimit:22.9256;stroke-dasharray:none;stroke-opacity:1" id="path16"/>
      <path d="M 684.438,829.27 H 1523.27" style="fill:none;stroke:#2f2f81;stroke-width:40.83;stroke-linecap:butt;stroke-linejoin:miter;stroke-miterlimit:22.9256;stroke-dasharray:none;stroke-opacity:1" id="path18"/>
      <path d="M 801.785,728.309 H 1406.3" style="fill:none;stroke:#2f2f81;stroke-width:40.827;stroke-linecap:butt;stroke-linejoin:miter;stroke-miterlimit:22.9256;stroke-dasharray:none;stroke-opacity:1" id="path20"/>
      <path d="m 1344.07,2181.34 c 294.72,-8.61 475.95,-641.46 113.63,-816.61 221.82,267.79 97.22,679.75 -113.63,816.61" style="fill:#ffffff;fill-opacity:1;fill-rule:evenodd;stroke:none" id="path-9"/>
      <path d="m 1272.46,2346.95 c 77.54,-104.62 -83.57,-198.56 -150.87,-93.78 -112.96,-129.4 -227.078,21.04 -163.735,83.59 -7.644,-69.67 78.355,-134.16 162.235,-19 29.61,-47.31 115.86,-103.28 152.37,29.19" style="fill:#2f2f81;fill-opacity:1;fill-rule:evenodd;stroke:none" id="path24"/>
      <path d="m 917.262,2173.28 c -176.676,-63.82 -326.785,-605.25 61.609,-844.29 -108.605,-48.47 -210.98,-19.57 -231.73,-47.65 46.308,-13.36 216.832,-48.07 312.139,-26.69 l 41.92,-64.57 41.31,63.17 c 86.52,-17.47 223.42,9.49 299.52,17.55 -41.54,26.64 -156.09,11.58 -199.46,53.83 393.81,272.63 240.3,788.56 57.35,838.09 78.56,-177.15 177.44,-563.36 -128.66,-730.06 l -3.85,715.75 -59.31,66.25 -83.53,-70.46 9.57,-709.48 C 819.086,1579.93 781.039,1847.7 917.262,2173.28" style="fill:#2f2f81;fill-opacity:1;fill-rule:evenodd;stroke:none" id="path26"/>
      <path d="m 556.109,2320.05 c -40.332,125.12 -158.058,119.92 -255.468,209.43 182.91,184.93 201.429,307.48 328.785,396.6 234.222,199.84 350.683,114.93 490.954,307.47 138.57,-193.23 357.78,-182.92 490.96,-309.7 115.29,-81.07 168.21,-269.37 317.68,-452.3 -129.81,-7.9 -211.63,-91.64 -279.93,-147.05" style="fill:none;stroke:#2f2f81;stroke-width:40.83;stroke-linecap:butt;stroke-linejoin:miter;stroke-miterlimit:22.9256;stroke-dasharray:none;stroke-opacity:1" id="path28"/>
      <path d="m 879.176,500.961 c 0.824,40.078 81.637,64.641 128.764,43.027 7.08,18.16 67.7,73.063 112.66,73.543 43.22,-9.242 89.14,-40.312 94.77,-73.519 89.88,10.136 104.12,-13.371 116.24,-35.883" style="fill:none;stroke:#2f2f81;stroke-width:27.221;stroke-linecap:butt;stroke-linejoin:miter;stroke-miterlimit:22.9256;stroke-dasharray:none;stroke-opacity:1" id="path30"/>
      <path d="M 1331.61,508.129 V 411.281 L 1163.51,274.969" style="fill:none;stroke:#2f2f81;stroke-width:27.221;stroke-linecap:butt;stroke-linejoin:miter;stroke-miterlimit:22.9256;stroke-dasharray:none;stroke-opacity:1" id="path-10"/>
      <path d="m 1163.51,274.969 c -39.34,0.011 -82.26,-1.77 -121.59,-1.778" style="fill:none;stroke:#2f2f81;stroke-width:27.221;stroke-linecap:butt;stroke-linejoin:miter;stroke-miterlimit:22.9256;stroke-dasharray:none;stroke-opacity:1" id="path-11"/>
      <path d="m 1041.92,273.191 -164.525,139.879 1.781,87.891" style="fill:none;stroke:#2f2f81;stroke-width:27.221;stroke-linecap:butt;stroke-linejoin:miter;stroke-miterlimit:22.9256;stroke-dasharray:none;stroke-opacity:1" id="path-12"/>
      <path d="M 939.988,497.359 1043.7,396.93 l 132.33,1.8 91.2,89.668" style="fill:none;stroke:#2f2f81;stroke-width:27.221;stroke-linecap:butt;stroke-linejoin:miter;stroke-miterlimit:22.9256;stroke-dasharray:none;stroke-opacity:1" id="path-13"/>
      <path d="m 1104.51,488.398 c -43.32,-7.898 -74.6,-20.898 -103.72,-48.429 16.1,-16.117 35.76,-25.09 51.85,-41.239 45.91,-0.589 79.27,-1.179 125.17,-1.8 14.3,16.16 21.45,21.539 35.77,37.679 -17.13,20.582 -44.41,47.621 -109.07,53.789" style="fill:none;stroke:#2f2f81;stroke-width:27.221;stroke-linecap:butt;stroke-linejoin:miter;stroke-miterlimit:22.9256;stroke-dasharray:none;stroke-opacity:1" id="path-14"/>
      <path d="m 879.367,2181.34 c -294.715,-8.61 -475.945,-641.46 -113.621,-816.61 -221.824,267.79 -97.215,679.75 113.621,816.61" style="fill:#2f2f81;fill-opacity:1;fill-rule:evenodd;stroke:none" id="path-15"/>
      <path d="m 202.703,2403.57 c 31.942,-26.26 47.742,-42.07 63.938,-90.41 24.23,43.22 54.332,83.28 90.402,97.02 27.707,-39.65 22.363,-96.82 25.355,-145.53 26.161,27.51 63.071,61.15 98.118,56.23 -31.02,-131.1 -57.516,-220.6 -124.618,-298.76 -77.523,-2.63 -158.054,21.44 -197.296,36.38 -15.274,124.82 3.566,229.1 44.101,345.07" style="fill:none;stroke:#2f2f81;stroke-width:40.83;stroke-linecap:butt;stroke-linejoin:miter;stroke-miterlimit:22.9256;stroke-dasharray:none;stroke-opacity:1" id="path-16"/>
      <path d="m 223.035,2037.06 c -4.945,119 24.129,200.8 47.551,277.33" style="fill:none;stroke:#2f2f81;stroke-width:27.221;stroke-linecap:butt;stroke-linejoin:miter;stroke-miterlimit:22.9256;stroke-dasharray:none;stroke-opacity:1" id="path-17"/>
      <path d="M 385.063,2266.7 C 336.98,2161.98 326.148,2094.6 293.469,2028.23" style="fill:none;stroke:#2f2f81;stroke-width:27.221;stroke-linecap:butt;stroke-linejoin:miter;stroke-miterlimit:22.9256;stroke-dasharray:none;stroke-opacity:1" id="path-18"/>
      <path d="m 46.0938,2017.11 c 37.9218,-20.07 57.3402,-32.78 84.6792,-77.63 14.145,47.26 34.883,92.5 67.661,112.78 36.808,-34.11 44.714,-91.68 58.98,-139.33 19.711,32.07 48.719,72.21 84.797,73.83 -0.559,-135.5 -6.25,-229 -55.051,-318.8 -59.23,-56.45 -150.601,-35.08 -205.1248,-0.56 -44.1289,120.71 -49.5,227.42 -35.9414,349.71" style="fill:none;stroke:#2f2f81;stroke-width:40.825;stroke-linecap:butt;stroke-linejoin:miter;stroke-miterlimit:22.9256;stroke-dasharray:none;stroke-opacity:1" id="path-19"/>
      <path d="m 158.141,1642.91 c -32.485,116.86 -29.348,218.43 -23.715,298.51" style="fill:none;stroke:#2f2f81;stroke-width:27.221;stroke-linecap:butt;stroke-linejoin:miter;stroke-miterlimit:22.9256;stroke-dasharray:none;stroke-opacity:1" id="path-20"/>
      <path d="m 259.602,1915.44 c -23.692,-112.56 -17.493,-204.77 -34.7,-276.52" style="fill:none;stroke:#2f2f81;stroke-width:27.221;stroke-linecap:butt;stroke-linejoin:miter;stroke-miterlimit:22.9256;stroke-dasharray:none;stroke-opacity:1" id="path-21"/>
      <path d="m 20.2422,1567.95 c 41.6055,-10.51 63.4766,-18.26 100.6558,-55.36 2.555,49.26 11.993,98.13 39.036,125.58 43.836,-24.42 65.144,-78.48 90.293,-121.41 11.55,35.83 30.234,81.7 64.906,91.82 31.531,-131.79 48.137,-223.98 21.988,-322.77 -3.168,-38.3 -21.523,-117.7 -68.766,-127.53 -60.07,-12.49 -115.789,53.7 -130.394,78.42 -71.4571,106.83 -101.9337,209.23 -117.7188,331.25" style="fill:none;stroke:#2f2f81;stroke-width:40.825;stroke-linecap:butt;stroke-linejoin:miter;stroke-miterlimit:22.9256;stroke-dasharray:none;stroke-opacity:1" id="path-22"/>
      <path d="m 268.078,1155.54 c -76.746,85.72 -139.172,270.81 -144.09,359.8" style="fill:none;stroke:#2f2f81;stroke-width:27.221;stroke-linecap:butt;stroke-linejoin:miter;stroke-miterlimit:22.9256;stroke-dasharray:none;stroke-opacity:1" id="path-23"/>
      <path d="m 251.754,1519.73 c 3.633,-114.97 31.461,-285.73 31.719,-359.5" style="fill:none;stroke:#2f2f81;stroke-width:27.221;stroke-linecap:butt;stroke-linejoin:miter;stroke-miterlimit:22.9256;stroke-dasharray:none;stroke-opacity:1" id="path-24"/>
      <path d="M 399.441,1162.5 C 507.828,1036.99 562.574,906.98 563.719,772.441" style="fill:none;stroke:#2f2f81;stroke-width:40.83;stroke-linecap:butt;stroke-linejoin:miter;stroke-miterlimit:22.9256;stroke-dasharray:none;stroke-opacity:1" id="path-25"/>
      <path d="M 563.719,772.441 421.23,651.391" style="fill:none;stroke:#2f2f81;stroke-width:40.83;stroke-linecap:butt;stroke-linejoin:miter;stroke-miterlimit:22.9256;stroke-dasharray:none;stroke-opacity:1" id="path-26"/>
      <path d="m 421.23,651.391 c -73.73,47.347 -240.238,48.507 -313.476,144.597 17.887,27.352 43.578,47.793 97.223,43.703 -59.797,54.09 -91.641,115.18 -115.6645,178.219 36.8865,16.88 75.4295,29.26 125.7185,10.1 -2.301,54.97 0.465,106.55 38.559,134.49 46.465,-18.97 73.265,-57.65 97.23,-99.19 10.008,27.51 16.145,67.36 48.621,99.19" style="fill:none;stroke:#2f2f81;stroke-width:40.83;stroke-linecap:butt;stroke-linejoin:miter;stroke-miterlimit:22.9256;stroke-dasharray:none;stroke-opacity:1" id="path-27"/>
      <path d="M 535.215,743.879 C 481.469,871.871 398.68,971.898 352.496,1063.31" style="fill:none;stroke:#2f2f81;stroke-width:27.221;stroke-linecap:butt;stroke-linejoin:miter;stroke-miterlimit:22.9256;stroke-dasharray:none;stroke-opacity:1" id="path-28"/>
      <path d="M 501.695,715.289 C 376.027,799.352 276.234,885.711 215.031,1029.68" style="fill:none;stroke:#2f2f81;stroke-width:27.221;stroke-linecap:butt;stroke-linejoin:miter;stroke-miterlimit:22.9256;stroke-dasharray:none;stroke-opacity:1" id="path-29"/>
      <path d="M 196.59,839.691 C 319.355,799.051 403.219,749.309 476.535,695.109" style="fill:none;stroke:#2f2f81;stroke-width:27.221;stroke-linecap:butt;stroke-linejoin:miter;stroke-miterlimit:22.9256;stroke-dasharray:none;stroke-opacity:1" id="path-30"/>
      <path d="m 510.863,421.641 c -38.965,5.629 -102.195,45.621 -126.043,96.941 24.239,36.047 64.934,51.34 96.676,49.438 -6.414,35.39 -29.332,73.839 -18.023,124.511 39.16,2.199 88.441,-11.121 109.949,-26.609 -0.992,40.5 5.539,69.137 19.894,81.75 129.356,-35.422 252.106,-181.211 282.418,-254.762 -0.953,-50.07 -1.906,-26.93 -2.843,-76.969" style="fill:none;stroke:#2f2f81;stroke-width:40.83;stroke-linecap:butt;stroke-linejoin:miter;stroke-miterlimit:22.9256;stroke-dasharray:none;stroke-opacity:1" id="path-31"/>
      <path d="m 872.891,415.941 -362.028,5.7" style="fill:none;stroke:#2f2f81;stroke-width:40.83;stroke-linecap:butt;stroke-linejoin:miter;stroke-miterlimit:22.9256;stroke-dasharray:none;stroke-opacity:1" id="path-32"/>
      <path d="M 570.578,668.77 C 654.688,578.559 743.211,502.121 812.227,416.871" style="fill:none;stroke:#2f2f81;stroke-width:27.221;stroke-linecap:butt;stroke-linejoin:miter;stroke-miterlimit:22.9256;stroke-dasharray:none;stroke-opacity:1" id="path-33"/>
      <path d="M 481.48,571.82 C 552.309,505.41 630.867,450.039 673.879,421.641" style="fill:none;stroke:#2f2f81;stroke-width:27.221;stroke-linecap:butt;stroke-linejoin:miter;stroke-miterlimit:22.9256;stroke-dasharray:none;stroke-opacity:1" id="path-34"/>
      <path d="m 683.922,550.898 3.894,152.313" style="fill:none;stroke:#2f2f81;stroke-width:27.221;stroke-linecap:butt;stroke-linejoin:miter;stroke-miterlimit:22.9256;stroke-dasharray:none;stroke-opacity:1" id="path-35"/>
      <path d="m 877.395,416.66 c -120.997,0.578 -242.008,1.18 -363.016,1.789 -41.992,-5.961 -76.559,-17.879 -94.774,-43.027 41.774,-34.024 78.723,-56.731 110.875,-71.75 131.84,23.316 274.165,33.68 420.235,43.039" style="fill:none;stroke:#2f2f81;stroke-width:27.221;stroke-linecap:butt;stroke-linejoin:miter;stroke-miterlimit:22.9256;stroke-dasharray:none;stroke-opacity:1" id="path-36"/>
      <path d="m 950.715,346.711 -73.32,69.949" style="fill:none;stroke:#2f2f81;stroke-width:27.221;stroke-linecap:butt;stroke-linejoin:miter;stroke-miterlimit:22.9256;stroke-dasharray:none;stroke-opacity:1" id="path-37"/>
      <path d="m 1129.54,278.57 -153.782,52" style="fill:none;stroke:#2f2f81;stroke-width:40.83;stroke-linecap:butt;stroke-linejoin:miter;stroke-miterlimit:22.9256;stroke-dasharray:none;stroke-opacity:1" id="path-38"/>
      <path d="M 975.758,330.57 C 825.555,307.121 690.852,258.422 578.754,172.738" style="fill:none;stroke:#2f2f81;stroke-width:40.83;stroke-linecap:butt;stroke-linejoin:miter;stroke-miterlimit:22.9256;stroke-dasharray:none;stroke-opacity:1" id="path-39"/>
      <path d="M 578.754,172.738 684.262,136.879" style="fill:none;stroke:#2f2f81;stroke-width:40.83;stroke-linecap:butt;stroke-linejoin:miter;stroke-miterlimit:22.9256;stroke-dasharray:none;stroke-opacity:1" id="path-40"/>
      <path d="M 684.262,136.879 C 780.832,207.75 900.039,250.18 1034.75,273.172 976.625,245.102 935.535,221.801 906,174.539" style="fill:none;stroke:#2f2f81;stroke-width:40.83;stroke-linecap:butt;stroke-linejoin:miter;stroke-miterlimit:22.9256;stroke-dasharray:none;stroke-opacity:1" id="path-41"/>
      <path d="M 906,174.539 1006.15,122.52" style="fill:none;stroke:#2f2f81;stroke-width:40.83;stroke-linecap:butt;stroke-linejoin:miter;stroke-miterlimit:22.9256;stroke-dasharray:none;stroke-opacity:1" id="path-42"/>
      <path d="m 1006.15,122.52 c 64.2,42.039 106.17,95.57 123.39,156.05" style="fill:none;stroke:#2f2f81;stroke-width:40.83;stroke-linecap:butt;stroke-linejoin:miter;stroke-miterlimit:22.9256;stroke-dasharray:none;stroke-opacity:1" id="path-43"/>
      <path d="M 691.438,93.8281 911.363,176.34" style="fill:none;stroke:#2f2f81;stroke-width:40.83;stroke-linecap:butt;stroke-linejoin:miter;stroke-miterlimit:22.9256;stroke-dasharray:none;stroke-opacity:1" id="path-44"/>
      <path d="m 911.363,176.34 c 23.301,-9.469 59.426,-26.531 116.247,-64.57 C 969.223,49.582 875.473,28.7305 789.77,20.3086" style="fill:none;stroke:#2f2f81;stroke-width:40.83;stroke-linecap:butt;stroke-linejoin:miter;stroke-miterlimit:22.9256;stroke-dasharray:none;stroke-opacity:1" id="path-45"/>
      <path d="M 789.77,20.3086 804.086,77.7109 691.438,93.8281" style="fill:none;stroke:#2f2f81;stroke-width:40.83;stroke-linecap:butt;stroke-linejoin:miter;stroke-miterlimit:22.9256;stroke-dasharray:none;stroke-opacity:1" id="path-46"/>
      <path d="m 1332.89,2181.34 c 294.71,-8.61 475.94,-641.46 113.62,-816.61 221.82,267.79 97.21,679.75 -113.62,816.61" style="fill:#2f2f81;fill-opacity:1;fill-rule:evenodd;stroke:none" id="path-47"/>
      <path d="m 2009.55,2403.57 c -31.94,-26.26 -47.74,-42.07 -63.93,-90.41 -24.23,43.22 -54.34,83.28 -90.4,97.02 -27.72,-39.65 -22.36,-96.82 -25.36,-145.53 -26.16,27.51 -63.07,61.15 -98.12,56.23 31.02,-131.1 57.52,-220.6 124.62,-298.76 77.52,-2.63 158.06,21.44 197.29,36.38 15.28,124.82 -3.56,229.1 -44.1,345.07" style="fill:none;stroke:#2f2f81;stroke-width:40.83;stroke-linecap:butt;stroke-linejoin:miter;stroke-miterlimit:22.9256;stroke-dasharray:none;stroke-opacity:1" id="path108"/>
      <path d="m 1989.22,2037.06 c 4.94,119 -24.13,200.8 -47.56,277.33" style="fill:none;stroke:#2f2f81;stroke-width:27.221;stroke-linecap:butt;stroke-linejoin:miter;stroke-miterlimit:22.9256;stroke-dasharray:none;stroke-opacity:1" id="path110"/>
      <path d="m 1827.19,2266.7 c 48.09,-104.72 58.93,-172.1 91.6,-238.47" style="fill:none;stroke:#2f2f81;stroke-width:27.221;stroke-linecap:butt;stroke-linejoin:miter;stroke-miterlimit:22.9256;stroke-dasharray:none;stroke-opacity:1" id="path112"/>
      <path d="m 2166.16,2017.11 c -37.92,-20.07 -57.33,-32.78 -84.67,-77.63 -14.15,47.26 -34.89,92.5 -67.67,112.78 -36.81,-34.11 -44.71,-91.68 -58.97,-139.33 -19.72,32.07 -48.72,72.21 -84.81,73.83 0.57,-135.5 6.26,-229 55.05,-318.8 59.24,-56.45 150.61,-35.08 205.13,-0.56 44.13,120.71 49.5,227.42 35.94,349.71" style="fill:none;stroke:#2f2f81;stroke-width:40.825;stroke-linecap:butt;stroke-linejoin:miter;stroke-miterlimit:22.9256;stroke-dasharray:none;stroke-opacity:1" id="path114"/>
      <path d="m 2054.11,1642.91 c 32.49,116.86 29.35,218.43 23.72,298.51" style="fill:none;stroke:#2f2f81;stroke-width:27.221;stroke-linecap:butt;stroke-linejoin:miter;stroke-miterlimit:22.9256;stroke-dasharray:none;stroke-opacity:1" id="path116"/>
      <path d="m 1952.66,1915.44 c 23.68,-112.56 17.49,-204.77 34.7,-276.52" style="fill:none;stroke:#2f2f81;stroke-width:27.221;stroke-linecap:butt;stroke-linejoin:miter;stroke-miterlimit:22.9256;stroke-dasharray:none;stroke-opacity:1" id="path-48"/>
      <path d="m 2192.01,1567.95 c -41.6,-10.51 -63.47,-18.26 -100.65,-55.36 -2.56,49.26 -11.99,98.13 -39.04,125.58 -43.83,-24.42 -65.15,-78.48 -90.28,-121.41 -11.56,35.83 -30.24,81.7 -64.92,91.82 -31.52,-131.79 -48.13,-223.98 -21.98,-322.77 3.16,-38.3 21.52,-117.7 68.77,-127.53 60.06,-12.49 115.78,53.7 130.39,78.42 71.45,106.83 101.93,209.23 117.71,331.25" style="fill:none;stroke:#2f2f81;stroke-width:40.825;stroke-linecap:butt;stroke-linejoin:miter;stroke-miterlimit:22.9256;stroke-dasharray:none;stroke-opacity:1" id="path120"/>
      <path d="m 1944.18,1155.54 c 76.74,85.72 139.17,270.81 144.09,359.8" style="fill:none;stroke:#2f2f81;stroke-width:27.221;stroke-linecap:butt;stroke-linejoin:miter;stroke-miterlimit:22.9256;stroke-dasharray:none;stroke-opacity:1" id="path122"/>
      <path d="m 1960.5,1519.73 c -3.63,-114.97 -31.45,-285.73 -31.72,-359.5" style="fill:none;stroke:#2f2f81;stroke-width:27.221;stroke-linecap:butt;stroke-linejoin:miter;stroke-miterlimit:22.9256;stroke-dasharray:none;stroke-opacity:1" id="path124"/>
      <path d="M 1812.81,1162.5 C 1704.43,1036.99 1649.68,906.98 1648.54,772.441" style="fill:none;stroke:#2f2f81;stroke-width:40.83;stroke-linecap:butt;stroke-linejoin:miter;stroke-miterlimit:22.9256;stroke-dasharray:none;stroke-opacity:1" id="path126"/>
      <path d="m 1648.54,772.441 142.49,-121.05" style="fill:none;stroke:#2f2f81;stroke-width:40.83;stroke-linecap:butt;stroke-linejoin:miter;stroke-miterlimit:22.9256;stroke-dasharray:none;stroke-opacity:1" id="path128"/>
      <path d="m 1791.03,651.391 c 73.73,47.347 240.23,48.507 313.47,144.597 -17.88,27.352 -43.58,47.793 -97.21,43.703 59.78,54.09 91.63,115.18 115.65,178.219 -36.88,16.88 -75.43,29.26 -125.71,10.1 2.29,54.97 -0.47,106.55 -38.56,134.49 -46.47,-18.97 -73.27,-57.65 -97.23,-99.19 -10.01,27.51 -16.14,67.36 -48.63,99.19" style="fill:none;stroke:#2f2f81;stroke-width:40.83;stroke-linecap:butt;stroke-linejoin:miter;stroke-miterlimit:22.9256;stroke-dasharray:none;stroke-opacity:1" id="path-49"/>
      <path d="m 1677.04,743.879 c 53.75,127.992 136.54,228.019 182.72,319.431" style="fill:none;stroke:#2f2f81;stroke-width:27.221;stroke-linecap:butt;stroke-linejoin:miter;stroke-miterlimit:22.9256;stroke-dasharray:none;stroke-opacity:1" id="path132"/>
      <path d="m 1710.56,715.289 c 125.66,84.063 225.46,170.422 286.67,314.391" style="fill:none;stroke:#2f2f81;stroke-width:27.221;stroke-linecap:butt;stroke-linejoin:miter;stroke-miterlimit:22.9256;stroke-dasharray:none;stroke-opacity:1" id="path134"/>
      <path d="M 2015.67,839.691 C 1892.9,799.051 1809.04,749.309 1735.71,695.109" style="fill:none;stroke:#2f2f81;stroke-width:27.221;stroke-linecap:butt;stroke-linejoin:miter;stroke-miterlimit:22.9256;stroke-dasharray:none;stroke-opacity:1" id="path136"/>
      <path d="m 1701.39,421.641 c 38.96,5.629 102.21,45.621 126.05,96.941 -24.24,36.047 -64.94,51.34 -96.67,49.438 6.4,35.39 29.32,73.839 18.01,124.511 -39.16,2.199 -88.44,-11.121 -109.94,-26.609 0.99,40.5 -5.55,69.137 -19.9,81.75 -129.36,-35.422 -252.11,-181.211 -282.41,-254.762 0.94,-50.07 1.9,-26.93 2.84,-76.969" style="fill:none;stroke:#2f2f81;stroke-width:40.83;stroke-linecap:butt;stroke-linejoin:miter;stroke-miterlimit:22.9256;stroke-dasharray:none;stroke-opacity:1" id="path138"/>
      <path d="m 1339.37,415.941 362.02,5.7" style="fill:none;stroke:#2f2f81;stroke-width:40.83;stroke-linecap:butt;stroke-linejoin:miter;stroke-miterlimit:22.9256;stroke-dasharray:none;stroke-opacity:1" id="path-50"/>
      <path d="M 1641.68,668.77 C 1557.57,578.559 1469.05,502.121 1400.03,416.871" style="fill:none;stroke:#2f2f81;stroke-width:27.221;stroke-linecap:butt;stroke-linejoin:miter;stroke-miterlimit:22.9256;stroke-dasharray:none;stroke-opacity:1" id="path142"/>
      <path d="M 1730.77,571.82 C 1659.94,505.41 1581.39,450.039 1538.38,421.641" style="fill:none;stroke:#2f2f81;stroke-width:27.221;stroke-linecap:butt;stroke-linejoin:miter;stroke-miterlimit:22.9256;stroke-dasharray:none;stroke-opacity:1" id="path144"/>
      <path d="m 1528.33,550.898 -3.88,152.313" style="fill:none;stroke:#2f2f81;stroke-width:27.221;stroke-linecap:butt;stroke-linejoin:miter;stroke-miterlimit:22.9256;stroke-dasharray:none;stroke-opacity:1" id="path146"/>
      <path d="m 1334.87,416.66 c 120.99,0.578 242,1.18 363.01,1.789 41.99,-5.961 76.56,-17.879 94.77,-43.027 -41.77,-34.024 -78.72,-56.731 -110.87,-71.75 -131.85,23.316 -274.17,33.68 -420.23,43.039" style="fill:none;stroke:#2f2f81;stroke-width:32.924;stroke-linecap:butt;stroke-linejoin:miter;stroke-miterlimit:22.9256;stroke-dasharray:none;stroke-opacity:1" id="path148"/>
      <path d="m 1261.55,346.711 73.32,69.949" style="fill:none;stroke:#2f2f81;stroke-width:32.924;stroke-linecap:butt;stroke-linejoin:miter;stroke-miterlimit:22.9256;stroke-dasharray:none;stroke-opacity:1" id="path150"/>
      <path d="m 1082.72,278.57 153.78,52" style="fill:none;stroke:#2f2f81;stroke-width:40.83;stroke-linecap:butt;stroke-linejoin:miter;stroke-miterlimit:22.9256;stroke-dasharray:none;stroke-opacity:1" id="path152"/>
      <path d="m 1236.5,330.57 c 150.2,-23.449 284.91,-72.148 397,-157.832" style="fill:none;stroke:#2f2f81;stroke-width:40.83;stroke-linecap:butt;stroke-linejoin:miter;stroke-miterlimit:22.9256;stroke-dasharray:none;stroke-opacity:1" id="path154"/>
      <path d="M 1633.5,172.738 1527.99,136.879" style="fill:none;stroke:#2f2f81;stroke-width:40.83;stroke-linecap:butt;stroke-linejoin:miter;stroke-miterlimit:22.9256;stroke-dasharray:none;stroke-opacity:1" id="path-51"/>
      <path d="m 1527.99,136.879 c -96.56,70.871 -215.78,113.301 -350.49,136.293 58.13,-28.07 99.22,-51.371 128.75,-98.633" style="fill:none;stroke:#2f2f81;stroke-width:40.83;stroke-linecap:butt;stroke-linejoin:miter;stroke-miterlimit:22.9256;stroke-dasharray:none;stroke-opacity:1" id="path158"/>
      <path d="M 1306.25,174.539 1206.11,122.52" style="fill:none;stroke:#2f2f81;stroke-width:40.83;stroke-linecap:butt;stroke-linejoin:miter;stroke-miterlimit:22.9256;stroke-dasharray:none;stroke-opacity:1" id="path160"/>
      <path d="m 1206.11,122.52 c -64.2,42.039 -106.17,95.57 -123.39,156.05" style="fill:none;stroke:#2f2f81;stroke-width:40.83;stroke-linecap:butt;stroke-linejoin:miter;stroke-miterlimit:22.9256;stroke-dasharray:none;stroke-opacity:1" id="path162"/>
      <path d="M 1520.82,93.8281 1300.89,176.34" style="fill:none;stroke:#2f2f81;stroke-width:40.83;stroke-linecap:butt;stroke-linejoin:miter;stroke-miterlimit:22.9256;stroke-dasharray:none;stroke-opacity:1" id="path164"/>
      <path d="m 1300.89,176.34 c -23.3,-9.469 -59.42,-26.531 -116.25,-64.57 58.39,-62.188 152.14,-83.0395 237.84,-91.4614" style="fill:none;stroke:#2f2f81;stroke-width:40.83;stroke-linecap:butt;stroke-linejoin:miter;stroke-miterlimit:22.9256;stroke-dasharray:none;stroke-opacity:1" id="path-52"/>
      <path d="m 1422.48,20.3086 -14.31,57.4023 112.65,16.1172" style="fill:none;stroke:#2f2f81;stroke-width:40.83;stroke-linecap:butt;stroke-linejoin:miter;stroke-miterlimit:22.9256;stroke-dasharray:none;stroke-opacity:1" id="path168"/>
      <path d="m 535.652,2266.49 c 220.692,567.49 898.708,556.07 1104.208,53.97" style="fill:none;stroke:#2f2f81;stroke-width:2.16;stroke-linecap:butt;stroke-linejoin:miter;stroke-miterlimit:22.9256;stroke-dasharray:none;stroke-opacity:1" id="path170"/>
      <path d="m 301.676,2525.71 c -14.863,84.47 17.273,168.98 66.418,253.5 19.285,-49.81 45.554,-77.58 82.097,-73.1" style="fill:none;stroke:#2f2f81;stroke-width:40.83;stroke-linecap:butt;stroke-linejoin:miter;stroke-miterlimit:22.9256;stroke-dasharray:none;stroke-opacity:1" id="path172"/>
      <path d="m 1926.45,2482.07 c 14.86,84.48 -17.27,168.98 -66.42,253.5 -19.29,-49.8 -45.54,-77.57 -82.1,-73.1" style="fill:none;stroke:#2f2f81;stroke-width:40.83;stroke-linecap:butt;stroke-linejoin:miter;stroke-miterlimit:22.9256;stroke-dasharray:none;stroke-opacity:1" id="path174"/>
      <path d="m 1107.23,396.52 c 35.8,0 64.98,-29.18 64.98,-64.969 0,-35.801 -29.18,-64.981 -64.98,-64.981 -35.79,0 -64.97,29.18 -64.97,64.981 0,35.789 29.18,64.969 64.97,64.969" style="fill:none;stroke:#2f2f81;stroke-width:32.927;stroke-linecap:butt;stroke-linejoin:miter;stroke-miterlimit:22.9256;stroke-dasharray:none;stroke-opacity:1" id="path-53"/>
      <path d="m 1525.06,2741.22 -2.3,-5.19 c -4.19,-9.46 -4.57,-17.15 -1.13,-23.09 2.08,-3.4 5.19,-6.02 9.34,-7.87 3.23,-1.43 7.7,0.87 13.4,6.9 1.18,1.41 2.51,3.02 4.01,4.84 1.5,1.82 2.71,2.53 3.63,2.12 1.15,-0.52 1.22,-1.92 0.2,-4.23 -0.41,-0.92 -1.2,-2.23 -2.36,-3.92 -1.17,-1.69 -2.11,-3.06 -2.86,-4.11 -9.03,-12.28 -17.51,-21.14 -25.44,-26.59 -7.94,-5.45 -14.32,-7.11 -19.17,-4.96 -7.61,3.37 -11.32,9.16 -11.14,17.35 0.19,8.2 2.63,17.6 7.33,28.21 l 26.49,20.54" style="fill:#2f2f81;fill-opacity:1;fill-rule:evenodd;stroke:none" id="path178"/>
      <path d="m 1497.6,2615.71 c -0.56,-2.51 -1.83,-4.91 -3.81,-7.2 -1.98,-2.3 -4.58,-4.74 -7.79,-7.31 -3.21,-2.58 -6.93,-4.59 -11.16,-6.02 -2.66,-1.04 -4.57,-1.29 -5.72,-0.78 -0.69,0.3 -1.79,2.03 -3.29,5.18 -1.5,3.15 -2.9,5.9 -4.2,8.28 -1.29,2.36 -2.32,4.55 -3.1,6.54 -0.77,2 -0.95,3.46 -0.54,4.38 2.72,2.38 4.78,4.23 6.18,5.54 4.56,4.05 7.92,6.97 10.1,8.77 3.61,2.54 7.27,5.19 10.98,7.96 0.76,0.49 1.92,1.22 3.45,2.19 0.38,-1 0.82,-1.88 1.31,-2.64 0.49,-0.77 1.15,-1.76 2,-2.96 3.11,-6.07 5,-10.5 5.7,-13.28 0.69,-2.8 0.66,-5.68 -0.11,-8.65" style="fill:#2f2f81;fill-opacity:1;fill-rule:evenodd;stroke:none" id="path180"/>
      <path d="m 1525.53,2741.01 c -4.51,-5.17 -8.96,-10.24 -13.36,-15.19 -5.3,-5.1 -9.67,-6.88 -13.13,-5.35 1.23,2.76 7.84,14.25 19.82,34.46 11.99,20.21 21.3,35.6 27.93,46.18 0.63,0.82 4.57,4.73 11.81,11.73 7.24,7 12.87,12.23 16.89,15.7 0.56,0.02 1.13,0.05 1.69,0.07 -0.08,-0.79 -1.01,-2.58 -2.8,-5.38 l -5.37,-8.37 -24.58,-39.6 c -4.94,-8.03 -9.01,-15.05 -12.23,-21.06 -3.23,-6.03 -5.45,-10.42 -6.67,-13.19" style="fill:#2f2f81;fill-opacity:1;fill-rule:evenodd;stroke:none" id="path182"/>
      <path d="m 1458.04,2770.93 -2.3,-5.2 c -4.19,-9.45 -4.57,-17.15 -1.13,-23.09 2.08,-3.4 5.19,-6.02 9.34,-7.86 3.23,-1.43 7.7,0.86 13.4,6.89 1.18,1.41 2.51,3.02 4.01,4.84 1.5,1.83 2.71,2.53 3.63,2.12 1.15,-0.51 1.22,-1.92 0.19,-4.22 -0.41,-0.93 -1.19,-2.23 -2.35,-3.93 -1.17,-1.69 -2.12,-3.06 -2.86,-4.11 -9.03,-12.27 -17.51,-21.14 -25.44,-26.59 -7.94,-5.45 -14.32,-7.1 -19.17,-4.96 -7.61,3.38 -11.32,9.16 -11.14,17.36 0.19,8.2 2.63,17.59 7.33,28.2 l 26.49,20.55" style="fill:#2f2f81;fill-opacity:1;fill-rule:evenodd;stroke:none" id="path184"/>
      <path d="m 1545.8,2909.71 c -0.56,-2.51 -1.83,-4.92 -3.82,-7.21 -1.98,-2.29 -4.58,-4.73 -7.79,-7.31 -3.21,-2.57 -6.93,-4.58 -11.15,-6.02 -2.66,-1.03 -4.57,-1.29 -5.72,-0.78 -0.7,0.31 -1.79,2.04 -3.29,5.19 -1.51,3.14 -2.91,5.9 -4.2,8.27 -1.3,2.37 -2.33,4.55 -3.1,6.54 -0.77,2 -0.95,3.47 -0.54,4.38 2.71,2.39 4.77,4.23 6.18,5.54 4.55,4.05 7.92,6.98 10.09,8.78 3.61,2.54 7.27,5.19 10.98,7.96 0.77,0.49 1.92,1.22 3.45,2.19 0.39,-1 0.83,-1.88 1.32,-2.65 0.48,-0.77 1.15,-1.75 2,-2.96 3.1,-6.06 5,-10.49 5.69,-13.28 0.7,-2.8 0.66,-5.68 -0.1,-8.64" style="fill:#2f2f81;fill-opacity:1;fill-rule:evenodd;stroke:none" id="path-54"/>
      <path d="m 1458.18,2770.86 c -1.92,-2.47 -3.88,-5.04 -5.9,-7.73 -2.03,-2.69 -4.53,-5.38 -7.51,-8.06 -2.98,-2.68 -5.75,-4.41 -8.31,-5.21 -2.56,-0.8 -4.15,-0.65 -4.76,0.46 2.35,5.3 5.44,11.17 9.25,17.62 3.83,6.44 6.31,10.65 7.46,12.63 l 2.04,3.65 c 0.3,0.69 0.39,1.2 0.26,1.54 -0.12,0.33 -0.69,0.3 -1.69,-0.08 -1.43,-0.75 -3.85,-2.16 -7.25,-4.24 -7.04,-4.05 -12.21,-7 -15.51,-8.85 -10.8,-5.7 -23.08,-10.05 -36.83,-13.06 -13.75,-3.01 -27.48,-4.1 -41.18,-3.27 -13.7,0.83 -28.68,2.99 -44.93,6.47 -16.26,3.47 -32.45,8.79 -48.59,15.95 l -5.19,2.3 c -9.92,4.39 -17.73,8.54 -23.45,12.45 -9.09,6.24 -14.48,12.29 -16.17,18.14 -1.68,5.85 -0.58,13.15 3.3,21.92 3.27,7.38 7.16,14.76 11.68,22.14 4.51,7.38 7.69,10.66 9.53,9.84 0.69,-0.31 0.22,-2.79 -1.43,-7.43 -1.65,-4.65 -1.74,-9.37 -0.27,-14.16 3.16,-9.68 16.72,-19.83 40.7,-30.46 13.15,-5.82 23.79,-10.13 31.94,-12.91 39.25,-13.53 74.19,-18.12 104.81,-13.76 14.27,1.68 26.67,5.7 37.22,12.06 8.01,5.01 15.59,11.85 22.76,20.54 l 13.58,17.57 c 1.38,1.87 6.52,6.63 15.42,14.27 5.76,4.9 9.49,8.01 11.17,9.33 1.69,1.32 3.53,2.36 5.53,3.13 -0.81,-1.84 -1.58,-3.57 -2.3,-5.19 -3.4,-4.56 -5.94,-8.12 -7.63,-10.68 l -23.36,-33.1 c -5.78,-9.3 -10.83,-17.89 -15.15,-25.78 -4.32,-7.88 -7.4,-13.89 -9.24,-18.04" style="fill:#2f2f81;fill-opacity:1;fill-rule:evenodd;stroke:none" id="path188"/>
      <path d="m 1541.37,2882.76 c 7.53,3.29 22.56,7.94 45.09,13.95 19.97,5.23 69.16,34.71 60.07,16.01 l -9.28,-19.07 c -5.47,-11.26 -22.69,-6.36 -31.95,-8.6 -12.39,-3.05 -24.73,-6 -37.03,-8.83 l -32.14,-8.1 c -4.69,-1.23 -9.12,-2.37 -13.31,-3.41 -4.18,-1.04 -6.35,-1.12 -6.51,-0.22 4.09,4.26 8.21,7.95 12.36,11.07 4.14,3.14 8.38,5.53 12.7,7.2" style="fill:#2f2f81;fill-opacity:1;fill-rule:evenodd;stroke:none" id="path190"/>
      <path d="m 917.605,2993.7 c -0.015,1.69 0.137,3.89 0.458,6.6 -0.008,0.56 0.21,1.52 0.652,2.88 1.25,-0.78 2.047,-1.5 2.39,-2.18 l 4.157,-12.32 7.605,-19.9 11.586,-31.89 c 2.543,-7.2 4.313,-13.3 5.313,-18.32 1,-5.01 1.746,-10.5 2.242,-16.48 l 0.5,-20.13 c -0.387,-7.56 -0.828,-12.67 -1.317,-15.32 -0.48,-2.66 -1.293,-4.27 -2.41,-4.84 l -2.218,1.84 c -1.297,6.98 -2.618,13.74 -3.969,20.27 -1.352,6.54 -2.489,11.55 -3.418,15.04 -3.024,11.48 -6.121,21.43 -9.293,29.87 -3.168,8.43 -6.024,15.97 -8.555,22.6 l -1.621,12.34 -2.102,29.94" style="fill:#2f2f81;fill-opacity:1;fill-rule:evenodd;stroke:none" id="path192"/>
      <path d="m 893.246,2950.27 c 4.578,-22.3 4.246,-36.91 -1.004,-43.84 l -9.539,-12.93 c -0.898,-1.02 -1.922,-2.75 -3.09,-5.19 -1.168,-2.43 -1.91,-4.44 -2.238,-6.02 -0.645,-3.73 -0.773,-8.75 -0.387,-15.06 1.227,-11.84 1.914,-20.41 2.071,-25.71 0.296,-9.47 -2.344,-17.61 -7.926,-24.43 -2.129,-2.49 -6.02,-5.96 -11.684,-10.41 -5.656,-4.44 -9.949,-7.41 -12.871,-8.9 -2.582,-1.6 -4.723,-1.84 -6.422,-0.73 -0.683,0.78 -0.277,2.76 1.219,5.93 1.5,3.17 3.414,6.91 5.75,11.21 0.223,0.69 2.836,5.27 7.844,13.77 3.109,5.56 4.894,8.73 5.34,9.52 3.765,8.15 6.14,14.32 7.125,18.5 0.324,1.59 0.16,8.44 -0.504,20.56 -0.657,12.12 -0.614,20.35 0.144,24.7 0.754,4.36 2.801,9.36 6.141,15.03 0.668,0.91 3.066,4.26 7.195,10.04 3.012,4.08 4.961,7.2 5.852,9.35 0.883,2.15 1.441,6.05 1.679,11.69 0.239,5.64 0.864,8.58 1.872,8.81 1.242,0.36 2.382,-1.61 3.433,-5.89" style="fill:#2f2f81;fill-opacity:1;fill-rule:evenodd;stroke:none" id="path194"/>
      <path d="m 967.383,2789.09 c 1.594,-2.02 2.66,-4.52 3.191,-7.51 0.528,-2.98 0.785,-6.53 0.758,-10.65 -0.019,-4.12 -0.809,-8.27 -2.352,-12.46 -0.878,-2.71 -1.886,-4.35 -3.003,-4.92 -0.676,-0.35 -2.707,-0.11 -6.098,0.7 -3.391,0.82 -6.414,1.48 -9.07,1.96 -2.657,0.49 -5,1.06 -7.036,1.72 -2.035,0.67 -3.285,1.45 -3.742,2.34 -0.14,3.61 -0.273,6.38 -0.406,8.29 -0.27,6.09 -0.422,10.55 -0.441,13.37 0.304,4.4 0.546,8.91 0.738,13.54 0.105,0.9 0.266,2.26 0.473,4.06 1.019,-0.33 1.98,-0.55 2.882,-0.65 0.907,-0.11 2.09,-0.21 3.551,-0.31 6.672,-1.41 11.309,-2.73 13.91,-3.95 2.606,-1.22 4.817,-3.07 6.645,-5.53 z m -33.684,-19.73 c 1.594,-2.02 2.66,-4.52 3.188,-7.5 0.531,-2.99 0.785,-6.54 0.765,-10.66 -0.027,-4.11 -0.812,-8.27 -2.359,-12.45 -0.875,-2.72 -1.883,-4.36 -3,-4.93 -0.676,-0.35 -2.707,-0.11 -6.102,0.71 -3.386,0.82 -6.414,1.47 -9.066,1.96 -2.656,0.48 -5,1.06 -7.035,1.71 -2.035,0.67 -3.285,1.45 -3.742,2.35 -0.141,3.61 -0.274,6.37 -0.403,8.29 -0.273,6.09 -0.425,10.54 -0.449,13.36 0.305,4.4 0.551,8.91 0.738,13.54 0.106,0.9 0.266,2.26 0.477,4.06 1.019,-0.33 1.98,-0.55 2.883,-0.65 0.902,-0.1 2.086,-0.21 3.551,-0.31 6.671,-1.41 11.304,-2.73 13.91,-3.95 2.605,-1.22 4.816,-3.06 6.644,-5.53 v 0" style="fill:#2f2f81;fill-opacity:1;fill-rule:evenodd;stroke:none" id="path196"/>
      <path d="m 782.418,2924.75 c -0.016,1.69 0.137,3.89 0.457,6.6 -0.008,0.57 0.211,1.53 0.652,2.88 1.246,-0.78 2.047,-1.5 2.391,-2.18 l 4.156,-12.32 7.602,-19.9 11.59,-31.89 c 2.543,-7.2 4.312,-13.3 5.308,-18.31 1,-5.02 1.75,-10.51 2.246,-16.49 l 0.5,-20.13 c -0.386,-7.56 -0.828,-12.67 -1.316,-15.32 -0.484,-2.66 -1.289,-4.27 -2.414,-4.84 l -2.211,1.84 c -1.301,6.98 -2.621,13.74 -3.973,20.27 -1.351,6.53 -2.488,11.55 -3.418,15.04 -3.027,11.48 -6.121,21.43 -9.293,29.88 -3.168,8.42 -6.019,15.96 -8.554,22.6 l -1.625,12.34 -2.098,29.93" style="fill:#2f2f81;fill-opacity:1;fill-rule:evenodd;stroke:none" id="path198"/>
      <path d="m 731.164,2786.49 c -1.48,2.35 -3.668,4.14 -6.559,5.36 -2.882,1.21 -7.601,2.42 -14.156,3.61 -1.242,0.21 -2.621,0.29 -4.144,0.21 -1.524,-0.06 -3.133,-0.1 -4.825,-0.12 -0.21,-1.81 -0.367,-3.16 -0.476,-4.06 -0.418,-3.61 -0.777,-8.18 -1.074,-13.72 l 1.187,-21.47 c 1.028,-1.46 2.813,-2.32 5.352,-2.59 2.539,-0.26 5.277,-0.49 8.211,-0.69 0.34,-0.11 4.066,-0.76 11.183,-1.94 2.149,-0.33 3.446,-0.37 3.895,-0.14 2.242,1.7 4.109,7.76 5.609,18.15 0.742,5.2 0.09,9.81 -1.972,13.86 -0.801,1.57 -1.547,2.75 -2.231,3.54 z m 52.082,4.47 c 1.281,-5.29 2.301,-9.37 3.059,-12.24 0.758,-2.87 1.375,-6.17 1.851,-9.89 1.543,-9.12 2.129,-18.87 1.762,-29.26 -0.371,-10.38 -1.645,-20.66 -3.816,-30.83 -3.489,-15.36 -8.879,-28.38 -16.184,-39.04 -7.305,-10.66 -17.133,-19.15 -29.492,-25.45 -14.16,-7.22 -27.238,-8.36 -39.231,-3.44 -11.996,4.92 -21.55,14.35 -28.652,28.28 -3.555,6.97 -6.496,14.95 -8.82,23.96 -2.328,9 -3.774,16.69 -4.332,23.06 -0.563,6.37 -0.871,13.22 -0.926,20.55 -0.078,9.59 0.125,19.47 0.613,29.62 0.188,4.06 0.367,6.35 0.535,6.86 0.164,0.5 0.754,0.88 1.77,1.11 0.562,0 1.25,-1.2 2.058,-3.62 0.805,-2.42 1.387,-4.53 1.743,-6.33 l 1.254,-29.94 c 0.859,-8.91 1.527,-14.93 2.003,-18.09 0.95,-5.75 2.739,-11.2 5.375,-16.37 6.762,-13.26 16.129,-20.52 28.098,-21.77 9.031,-1.06 18.719,1.05 29.051,6.32 7.414,3.78 13.617,7.73 18.601,11.82 4.989,4.11 9.743,9.5 14.254,16.19 4.52,6.69 7.871,14 10.063,21.91 1.539,5.31 2.836,12.49 3.89,21.52 0.407,5.87 0.278,11.11 -0.382,15.73 -0.657,4.62 -2.473,9.85 -5.453,15.69 l -11.704,24.62 c -2.062,4.04 -3.507,7.98 -4.324,11.8 -0.82,3.84 -1.539,8.85 -2.148,15.05 l 0.035,16.58 c 0.09,3.16 0.156,5.1 0.207,5.84 0.051,0.74 0.242,1.9 0.566,3.48 1.692,-0.55 2.891,-1.79 3.582,-3.7 l 4.332,-12.66 6.911,-17.71 c 3.32,-6.51 5.851,-12.44 7.582,-17.79 1.738,-5.34 3.824,-12.63 6.269,-21.86 v 0" style="fill:#2f2f81;fill-opacity:1;fill-rule:evenodd;stroke:none" id="path200"/>
      <path d="m 1136.23,2991.09 v -6.44 c 0,-8.07 1.64,-14.19 4.92,-18.35 3.28,-4.16 6.93,-6.24 10.97,-6.24 0.76,0.25 2.02,2.96 3.78,8.13 1.77,5.18 3.28,9.15 4.54,11.92 3.54,-0.75 6.12,-2.52 7.76,-5.29 1.64,-2.78 2.59,-5.55 2.84,-8.33 0,-9.33 -2.02,-18.41 -6.06,-27.24 -5.55,-11.85 -12.98,-17.78 -22.32,-17.78 -5.29,0 -10.09,2.71 -14.37,8.13 -4.29,5.42 -6.69,10.6 -7.19,15.52 -0.51,4.92 -0.76,8.01 -0.76,9.27 0,1.26 0,2.14 0,2.64 v 4.54 l 15.89,29.52" style="fill:#2f2f81;fill-opacity:1;fill-rule:evenodd;stroke:none" id="path202"/>
      <path d="m 1135.94,2991.09 -3.41,-24.21 c -1.26,-8.33 -2.58,-15.14 -3.97,-20.44 -1.39,-5.29 -2.71,-7.94 -3.98,-7.94 -1,0 -2.52,-1.77 -4.53,-5.3 -4.54,-7.57 -6.82,-12.36 -6.82,-14.38 0,-1.51 1.46,-3.34 4.36,-5.48 2.9,-2.14 4.85,-3.6 5.86,-4.35 3.53,-2.78 6.37,-5.74 8.51,-8.89 2.15,-3.15 3.22,-7.13 3.22,-11.92 0,-6.31 -1.77,-15.64 -5.3,-28 -4.54,-16.14 -10.66,-30.2 -18.35,-42.19 -7.69,-11.97 -16.58,-21.75 -26.67,-29.32 -12.61,-9.58 -25.98,-14.38 -40.11,-14.38 -15.89,0 -27.87,5.05 -35.94,15.14 -7.06,8.82 -10.591,20.55 -10.591,35.19 0,8.82 0.629,16.9 1.891,24.2 1.26,7.32 3.66,15.52 7.19,24.6 2.52,6.56 5.61,13.81 9.27,21.76 3.65,7.95 7.31,15.38 10.97,22.32 3.65,6.93 6.62,12.8 8.89,17.59 4.79,9.34 7.69,13.87 8.7,13.62 0.76,-0.5 1.14,-1.76 1.14,-3.78 0,-3.28 -0.89,-6.68 -2.65,-10.22 -9.08,-20.42 -15.64,-35.31 -19.67,-44.64 -7.07,-16.4 -10.6,-29.13 -10.6,-38.21 0,-12.36 4.04,-21.82 12.11,-28.38 7.31,-5.8 16.9,-8.7 28.75,-8.7 15.14,0 28.5,3.72 40.11,11.16 11.6,7.44 19.67,17.97 24.21,31.6 0.26,1.5 -0.56,3.21 -2.46,5.1 -1.89,1.89 -5.61,4.6 -11.16,8.13 -4.29,2.53 -6.81,4.17 -7.57,4.93 -3.78,3.27 -5.67,7.56 -5.67,12.85 0,3.04 1.51,8.33 4.54,15.9 l 11.73,23.46 c 3.02,5.54 5.29,9.83 6.81,12.86 2.77,5.55 4.41,9.71 4.92,12.48 l 0.38,8.33 1.13,19.67 c 0.76,7.06 1.83,14 3.22,20.81 1.38,6.81 2.58,12.11 3.59,15.89 2.02,6.56 3.53,11.1 4.54,13.62 2.02,5.05 5.04,10.97 9.08,17.78 1.01,0.76 1.83,0.95 2.46,0.57 0.63,-0.38 0.44,-2.08 -0.57,-5.1 -1.76,-10.6 -3.02,-18.67 -3.78,-24.22 -2.52,-16.65 -3.78,-26.48 -3.78,-29.51" style="fill:#2f2f81;fill-opacity:1;fill-rule:evenodd;stroke:none" id="path204"/>
      <path d="m 1162.11,3112.82 c 1.27,0 1.9,-1.39 1.9,-4.16 0,-3.03 -0.19,-5.68 -0.57,-7.95 -0.38,-2.26 -1.2,-4.41 -2.46,-6.43 -2.78,-5.8 -6.18,-8.7 -10.21,-8.7 -2.53,0 -4.55,1.26 -6.06,3.78 l -2.27,4.54 c -0.5,-1.01 -1.01,-1.76 -1.51,-2.26 -0.51,-0.51 -1.01,-1.01 -1.51,-1.52 -2.78,-4.79 -6.56,-7.19 -11.36,-7.19 -2.77,0 -5.23,1.33 -7.37,3.98 -2.15,2.64 -3.22,5.98 -3.22,10.02 0,4.04 0.44,7.82 1.32,11.35 0.89,3.53 2.21,5.29 3.98,5.29 0.25,0 0.44,-1.06 0.56,-3.21 0.13,-2.15 0.26,-3.91 0.38,-5.29 0.13,-1.39 0.57,-2.78 1.33,-4.16 0.75,-1.4 2.52,-2.09 5.29,-2.09 2.27,0 4.29,0.88 6.06,2.65 1.76,1.77 3.4,3.78 4.92,6.05 0.75,1.27 1.51,1.9 2.26,1.9 0.76,0 1.33,-0.76 1.71,-2.27 0.38,-1.52 0.82,-2.52 1.32,-3.03 1.52,-2.27 3.53,-3.41 6.05,-3.41 1.02,0 2.02,0.39 3.03,1.14 1.01,0.75 1.64,1.26 1.89,1.51 1.26,1.52 2.53,3.79 3.79,6.82 0,0.5 0.25,1.38 0.75,2.64" style="fill:#2f2f81;fill-opacity:1;fill-rule:evenodd;stroke:none" id="path206"/>
    </g>
  </g>
</svg>