<?xml version="1.0" encoding="utf-8"?>
<svg viewBox="100 0 200 200" xmlns="http://www.w3.org/2000/svg">
  <path d="M 162.389 104.614 L 184.082 94.745 C 193.733 65.041 183.852 44.192 158.479 37.607 C 145.932 62.604 143.651 88.308 162.389 104.614" style="fill:#96d5f4;fill-opacity:1;fill-rule:evenodd;stroke:none" id="path-1"/>
  <path d="M 158.74 114.001 L 175.948 108.916 L 174.905 93.142 C 170.039 65.493 154.481 60.56 132.928 68.373 C 132.439 93.685 140.456 109.545 158.74 114.001" style="fill:#96d5f4;fill-opacity:1;fill-rule:evenodd;stroke:none" id="path34"/>
  <path d="M 159.523 123.126 L 170.341 110.573 L 166.823 98.617 C 150.961 81.117 136.621 83.006 123.541 100.964 C 130.82 120.138 142.509 128.286 159.523 123.126" style="fill:#96d5f4;fill-opacity:1;fill-rule:evenodd;stroke:none" id="path36"/>
  <path d="M 164.476 129.383 L 175.928 110.611 L 159.523 104.093 C 139.076 102.551 128.951 112.154 125.888 129.383 C 137.229 140.033 149.657 143.075 164.476 129.383" style="fill:#96d5f4;fill-opacity:1;fill-rule:evenodd;stroke:none" id="path38"/>
  <path d="M 173.341 132.773 L 174.233 113.389 L 159.763 112.681 C 139.279 121.008 133.941 135.57 137.099 153.631 C 153.205 157.827 166.273 153.612 173.341 132.773" style="fill:#96d5f4;fill-opacity:1;fill-rule:evenodd;stroke:none" id="path40"/>
  <path d="M 183.509 130.948 L 178.035 114.997 L 163.137 117.675 C 144.591 135.875 146.6 153.596 157.957 171.1 C 176.025 167.09 184.496 153.955 183.509 130.948" style="fill:#96d5f4;fill-opacity:1;fill-rule:evenodd;stroke:none" id="path-2"/>
  <path d="M 190.792 121.113 L 174.233 113.389 L 164.476 129.383 C 160.049 151.787 172.069 167.873 187.681 178.14 C 205.013 162.717 207.702 138.971 190.792 121.113" style="fill:#96d5f4;fill-opacity:1;fill-rule:evenodd;stroke:none" id="path-3"/>
  <path d="M 195.985 110.495 L 179.023 111.255 L 173.341 132.773 C 177.545 152.991 199.381 167.048 227.312 169.275 C 232.692 142.684 226.769 121.092 195.985 110.495" style="fill:#96d5f4;fill-opacity:1;fill-rule:evenodd;stroke:none" id="path46"/>
  <path d="M 194.198 98.878 L 175.948 108.916 L 183.509 130.948 C 195.884 146.489 230.321 149.998 263.553 132.773 C 251.212 101.312 222.88 88.711 194.198 98.878" style="fill:#96d5f4;fill-opacity:1;fill-rule:evenodd;stroke:none" id="path48"/>
  <path d="M 179.337 102.268 L 181.945 118.173 C 217.421 133.071 254.933 110.226 275.025 75.934 C 240.337 56.358 196.47 70.22 179.337 102.268" style="fill:#96d5f4;fill-opacity:1;fill-rule:evenodd;stroke:none" id="path50"/>
  <path d="M 169.951 104.354 L 181.945 113.479 C 221.068 109.599 247.201 71.991 248.952 27.699 C 209.07 38.127 179.933 60.549 169.951 104.354" style="fill:#96d5f4;fill-opacity:1;fill-rule:evenodd;stroke:none" id="path52"/>
  <path d="M 166.823 98.617 L 186.637 104.354 C 216.796 74.593 219.577 42.052 199.674 18.985 C 175.361 38.032 160.021 70.617 166.823 98.617" style="fill:#96d5f4;fill-opacity:1;fill-rule:evenodd;stroke:none" id="path54"/>
  <path d="M 181.065 112.81 L 181.945 113.479 C 208.674 110.828 229.337 92.431 240.306 66.916 C 215.144 67.016 191.022 80.41 179.337 102.268 L 181.065 112.81" style="fill:#4c94d1;fill-opacity:1;fill-rule:evenodd;stroke:none" id="path-4"/>
  <path d="M 166.823 98.617 L 172.169 100.166 L 184.082 94.745 C 191.025 73.375 187.86 56.589 176.088 46.4 C 166.76 62.772 162.676 81.547 166.823 98.617" style="fill:#4c94d1;fill-opacity:1;fill-rule:evenodd;stroke:none" id="path58"/>
  <path d="M 171.069 99.847 L 186.637 104.354 C 207.257 84.005 215.076 62.358 211.6 43.326 C 192.22 55.615 178.051 73.719 171.069 99.847" style="fill:#4c94d1;fill-opacity:1;fill-rule:evenodd;stroke:none" id="path60"/>
  <path d="M 162.389 104.614 L 175.276 98.752 L 174.905 93.142 C 171.384 73.137 162.265 65.027 149.331 65.029 C 147.108 80.275 150.557 94.318 162.389 104.614" style="fill:#4c94d1;fill-opacity:1;fill-rule:evenodd;stroke:none" id="path62"/>
  <path d="M 158.74 114.001 L 170.341 110.573 L 166.823 98.617 C 155.503 86.129 144.959 83.517 135.095 89.571 C 138.569 102.61 146.264 110.961 158.74 114.001" style="fill:#4c94d1;fill-opacity:1;fill-rule:evenodd;stroke:none" id="path64"/>
  <path d="M 159.523 123.126 L 170.341 110.573 L 169.613 108.102 L 159.523 104.093 C 145.735 103.053 136.641 107.082 131.241 115.099 C 138.253 123.81 147.575 126.749 159.523 123.126" style="fill:#4c94d1;fill-opacity:1;fill-rule:evenodd;stroke:none" id="path66"/>
  <path d="M 164.476 129.383 L 174.233 113.389 L 159.763 112.681 C 146.075 118.245 139.152 126.594 137.005 136.91 C 145.323 140.283 154.34 138.748 164.476 129.383" style="fill:#4c94d1;fill-opacity:1;fill-rule:evenodd;stroke:none" id="path-5"/>
  <path d="M 173.341 132.773 L 174.127 115.699 L 163.137 117.675 C 150.275 130.296 147.301 142.689 150.475 154.937 C 160.388 153.896 168.357 147.469 173.341 132.773" style="fill:#4c94d1;fill-opacity:1;fill-rule:evenodd;stroke:none" id="path70"/>
  <path d="M 183.509 130.948 L 178.103 115.194 L 177.779 115.042 L 172.664 115.962 L 164.476 129.383 C 161.688 143.495 165.427 155.1 172.475 164.323 C 180.512 157.564 184.176 146.517 183.509 130.948" style="fill:#4c94d1;fill-opacity:1;fill-rule:evenodd;stroke:none" id="path72"/>
  <path d="M 190.792 121.113 L 177.996 115.144 L 173.341 132.773 C 175.983 145.474 185.582 155.743 199.281 162.176 C 204.834 148.831 202.564 133.546 190.792 121.113" style="fill:#4c94d1;fill-opacity:1;fill-rule:evenodd;stroke:none" id="path74"/>
  <path d="M 195.985 110.495 L 179.023 111.255 L 178.035 114.997 L 183.509 130.948 C 191.428 140.893 208.382 145.911 228.274 143.721 C 225.617 129.06 216.12 117.426 195.985 110.495" style="fill:#4c94d1;fill-opacity:1;fill-rule:evenodd;stroke:none" id="path76"/>
  <path d="M 194.198 98.878 L 180.057 106.656 L 181.945 118.173 C 204.328 127.572 227.518 121.944 246.637 107.899 C 232.441 95.471 213.398 92.072 194.198 98.878" style="fill:#4c94d1;fill-opacity:1;fill-rule:evenodd;stroke:none" id="path78"/>
  <path d="M 207.492 74.953 C 195.67 81.054 185.686 90.406 179.351 102.244 L 186.637 104.354 C 196.413 94.706 203.31 84.767 207.492 74.953" style="fill:#2c63af;fill-opacity:1;fill-rule:evenodd;stroke:none" id="path-6"/>
  <path d="M 166.823 98.617 L 172.168 100.166 L 172.169 100.166 L 175.276 98.752 L 174.905 93.142 C 173.245 83.71 170.34 76.923 166.377 72.383 C 164.735 81.213 164.76 90.126 166.823 98.617" style="fill:#2c63af;fill-opacity:1;fill-rule:evenodd;stroke:none" id="path82"/>
  <path d="M 171.069 99.847 L 172.169 100.166 L 184.082 94.745 C 187.616 83.867 188.529 74.178 187.024 65.941 C 180.023 75.364 174.617 86.569 171.069 99.847" style="fill:#2c63af;fill-opacity:1;fill-rule:evenodd;stroke:none" id="path84"/>
  <path d="M 162.389 104.614 L 167.856 102.128 L 166.823 98.617 C 161.291 92.513 155.943 88.77 150.769 87.244 C 152.871 93.724 156.641 99.612 162.389 104.614" style="fill:#2c63af;fill-opacity:1;fill-rule:evenodd;stroke:none" id="path86"/>
  <path d="M 158.74 114.001 L 170.341 110.573 L 169.613 108.102 L 159.523 104.093 C 153.319 103.625 148.067 104.183 143.672 105.67 C 147.571 109.695 152.571 112.498 158.74 114.001" style="fill:#2c63af;fill-opacity:1;fill-rule:evenodd;stroke:none" id="path88"/>
  <path d="M 159.523 123.126 L 168.169 113.092 L 159.763 112.681 C 152.532 115.621 147.189 119.338 143.441 123.71 C 148.164 125.11 153.511 124.95 159.523 123.126" style="fill:#2c63af;fill-opacity:1;fill-rule:evenodd;stroke:none" id="path90"/>
  <path d="M 164.476 129.383 L 172.664 115.962 L 163.137 117.675 C 156.225 124.457 152.169 131.174 150.388 137.838 C 154.851 136.657 159.531 133.953 164.476 129.383" style="fill:#2c63af;fill-opacity:1;fill-rule:evenodd;stroke:none" id="path-7"/>
  <path d="M 173.341 132.773 L 174.127 115.699 L 172.664 115.962 L 164.476 129.383 C 163.128 136.206 163.305 142.443 164.645 148.108 C 168.111 144.565 171.043 139.548 173.341 132.773" style="fill:#2c63af;fill-opacity:1;fill-rule:evenodd;stroke:none" id="path-8"/>
  <path d="M 183.509 130.948 L 178.103 115.194 L 177.996 115.144 L 173.341 132.773 C 174.62 138.921 177.528 144.499 181.744 149.348 C 183.224 144.129 183.812 138.003 183.509 130.948" style="fill:#2c63af;fill-opacity:1;fill-rule:evenodd;stroke:none" id="path96"/>
  <path d="M 190.792 121.113 L 178.103 115.194 L 183.509 130.948 C 187.512 135.974 193.822 139.741 201.652 141.955 C 200.402 134.688 196.86 127.521 190.792 121.113" style="fill:#2c63af;fill-opacity:1;fill-rule:evenodd;stroke:none" id="path98"/>
  <path d="M 195.985 110.495 L 180.799 111.176 L 181.945 118.173 C 193.348 122.961 204.96 123.848 216.137 121.711 C 211.136 117.213 204.516 113.432 195.985 110.495" style="fill:#2c63af;fill-opacity:1;fill-rule:evenodd;stroke:none" id="path100"/>
  <path d="M 194.198 98.878 L 180.057 106.656 L 181.065 112.81 L 181.945 113.479 C 196.836 112.002 209.844 105.637 220.341 95.877 C 211.973 94.762 203.102 95.722 194.198 98.878" style="fill:#2c63af;fill-opacity:1;fill-rule:evenodd;stroke:none" id="path102"/>
  <path d="M 175.811 85.805 C 173.448 89.72 172.041 93.978 171.428 98.521 C 169.248 95.72 166.624 93.366 163.693 91.317 C 163.553 95.346 164.092 99.318 165.451 103.222 C 162.172 102.223 158.892 101.868 155.611 101.747 C 157.249 104.906 159.396 107.557 162.157 109.59 C 158.755 110.553 155.647 111.888 152.743 113.479 C 155.611 114.894 158.633 116.074 161.999 116.738 C 159.327 119.627 157.295 122.598 155.619 125.613 C 158.813 124.181 162.597 123.457 165.416 121.023 C 164.411 125.021 163.235 128.176 163.353 132.552 C 165.952 130.154 168.44 127.722 170.159 125.072 C 170.948 129.013 172.339 132.352 174 135.416 C 175.628 132.146 176.88 128.769 177.633 125.248 C 179.805 128.115 182.29 130.757 185.337 132.998 C 185.778 129.149 185.596 125.357 184.664 121.634 C 188.277 123.28 191.889 124.298 195.502 124.691 C 192.697 121.036 189.534 117.686 185.856 114.783 C 190.533 114.382 194.936 113.295 199.113 111.642 C 195.253 110.06 191.26 108.71 186.898 108.004 C 190.965 104.55 194.376 100.737 197.066 96.532 C 192.322 97.581 187.889 99.318 183.77 101.747 C 185.997 96.834 187.337 91.786 187.941 86.624 C 183.804 89.855 180.263 93.562 177.376 97.796 C 177.692 93.735 177.119 89.742 175.811 85.805" style="fill:#ffffff;fill-opacity:1;fill-rule:evenodd;stroke:none" id="path104"/>
</svg>